<svg width="500" height="500" viewBox="0 0 500 500" fill="none" xmlns="http://www.w3.org/2000/svg">
<path d="M213.455 336.641C213.455 336.641 182.398 359.297 175.029 367.702C161.567 383.055 161.157 391.493 161.535 396.059C161.665 397.631 162.802 409.386 170.89 412.595C175.977 414.611 181.145 412.189 182.118 411.731C188.414 408.778 190.86 402.211 191.45 400.81C191.518 400.646 191.58 400.479 191.632 400.309C192.28 398.26 196.772 384.233 199.608 381.009" fill="#A6ADAE"/>
<path d="M199.995 380.569C199.922 380.651 199.856 380.729 199.799 380.793C199.867 380.713 199.933 380.64 199.995 380.569Z" fill="#35393B"/>
<path d="M199.799 380.793C199.753 380.845 199.705 380.898 199.657 380.954C199.691 380.916 199.739 380.861 199.799 380.793Z" fill="#35393B"/>
<path d="M199.607 381.01C199.607 381.01 199.624 380.991 199.631 380.982C199.617 380.998 199.607 381.01 199.607 381.01Z" fill="#35393B"/>
<path d="M200.715 379.751C200.569 379.918 200.35 380.168 200.04 380.517C200.263 380.264 200.526 379.965 200.715 379.751Z" fill="#35393B"/>
<path d="M200.911 379.528C200.882 379.562 200.841 379.61 200.788 379.667C200.841 379.608 200.882 379.562 200.911 379.528Z" fill="#35393B"/>
<path d="M200.911 379.529C200.936 379.499 200.957 379.478 200.964 379.469C200.957 379.478 200.939 379.496 200.911 379.529Z" fill="#35393B"/>
<path d="M228.941 336.299C228.941 336.299 219.691 332.02 213.455 336.641C213.455 336.641 182.398 359.297 175.029 367.702C172.936 370.088 170.887 372.599 169.043 375.199L177.796 379.574L195.028 390.502C196.535 386.528 198.26 382.545 199.61 381.009C199.61 381.009 222.939 353.912 225.941 350.893C228.943 347.874 233.372 341.029 228.943 336.299H228.941Z" fill="#35393B"/>
<path d="M166.65 378.826C178.139 384.381 189.228 392.862 193.08 395.929C194.183 392.705 195.736 388.414 197.235 385.154C190.361 379.665 177.949 373.727 172.167 371.097C170.158 373.579 168.269 376.165 166.653 378.826H166.65Z" fill="#FF575E"/>
</svg>
