<svg width="500" height="500" viewBox="0 0 500 500" fill="none" xmlns="http://www.w3.org/2000/svg">
<path d="M293.731 336.405C293.731 336.405 323.637 360.56 330.585 369.317C343.254 385.285 343.231 393.798 342.668 398.302C342.522 399.464 340.765 412.179 332.297 414.808C327.478 416.305 322.821 413.81 321.467 413.086C314.77 409.499 312.824 402.695 312.461 401.321C312.461 401.321 308.265 385.027 305.379 381.398" fill="#A6ADAE"/>
<path d="M330.585 369.319C323.637 360.562 293.731 336.407 293.731 336.407C289.804 331.476 278.288 334.896 278.288 334.896C275.43 337.512 275.911 342.546 276.314 345.565C276.718 348.584 305.299 381.302 305.299 381.302L305.32 381.172L305.379 381.402C306.836 383.234 308.627 388.297 310.045 392.861L322.228 381.154L334.802 374.997C333.466 373.049 332.039 371.151 330.587 369.319H330.585Z" fill="#35393B"/>
<path d="M305.37 381.391C305.37 381.391 305.345 381.359 305.326 381.336C305.342 381.354 305.356 381.373 305.37 381.391Z" fill="#35393B"/>
<path d="M308.11 387.114C309.222 390.106 310.296 393.606 311.098 396.386C321.854 387.222 332.226 383.079 338.622 381.245C337.145 378.465 335.378 375.744 333.479 373.126C318.638 377.182 311.458 383.093 308.107 387.112L308.11 387.114Z" fill="#FF575E"/>
</svg>
