<svg width="500" height="500" viewBox="0 0 500 500" fill="none" xmlns="http://www.w3.org/2000/svg">
<path d="M395.563 348.057C376.704 426.188 324.616 463.906 243.938 464.372C163.261 464.838 118.325 423.316 104.348 340.872C90.3702 258.428 144.203 116.357 243.938 114.561C343.674 112.765 414.422 269.925 395.563 348.057Z" fill="#A6ADAE"/>
<mask id="mask0_22582_44867" style="mask-type:alpha" maskUnits="userSpaceOnUse" x="102" y="114" width="297" height="351">
<path d="M395.563 348.057C376.704 426.188 324.616 463.906 243.938 464.372C163.261 464.838 118.325 423.316 104.348 340.872C90.3702 258.428 144.203 116.357 243.938 114.561C343.674 112.765 414.422 269.925 395.563 348.057Z" fill="#AFBBCA"/>
</mask>
<g mask="url(#mask0_22582_44867)">
<path d="M325.352 229.069C363.543 229.069 374.745 192.249 372.949 160.817C371.153 129.385 354.988 117.71 319.065 117.71C314.328 117.71 309.747 117.586 305.363 117.467C276.505 116.685 256.201 116.135 256.201 152.734C256.201 194.893 287.161 229.069 325.352 229.069Z" fill="#FF575E"/>
<path d="M175.376 247.031C177.172 282.953 139.453 300.914 121.492 300.914C103.531 300.914 90.9579 283.974 90.9579 254.215C90.9579 249.146 90.7377 244.397 90.5341 240.006C89.5424 218.617 88.9445 205.72 116.104 205.72C146.638 182.37 173.579 211.108 175.376 247.031Z" fill="#8A969B"/>
<path d="M390.91 401.497C390.91 439.192 378.622 460.769 342.415 460.769C304.696 469.749 279.551 449.968 279.551 412.274C279.551 374.579 308.902 344.021 345.109 344.021C381.316 344.021 399.891 374.555 390.91 401.497Z" fill="#35393B"/>
<path d="M378.338 302.71C391.233 302.71 398.095 291.452 398.095 277.565C398.095 263.677 385.522 252.419 374.745 252.419C363.969 252.419 354.988 263.677 354.988 277.565C354.988 291.452 365.442 302.71 378.338 302.71Z" fill="#FFA295"/>
<path d="M182.56 383.536C195.456 383.536 205.91 372.278 205.91 358.39C205.91 344.502 195.456 333.244 182.56 333.244C169.665 333.244 159.211 344.502 159.211 358.39C159.211 372.278 169.665 383.536 182.56 383.536Z" fill="#FFA295"/>
<path opacity="0.2" d="M96.3203 371.401C186.511 462.307 351.86 419.359 409.124 327.737C409.124 493.802 307.092 499.747 241.633 493.85C176.174 487.953 102.047 463.738 96.3203 371.401Z" fill="black"/>
<g opacity="0.4">
<path d="M112.512 250.623C198.725 59.6002 311.881 137.467 371.153 205.72C366.962 162.014 333.434 75.6808 232.852 79.9915C107.123 85.3799 20.9095 453.585 112.512 250.623Z" fill="white" style="mix-blend-mode:soft-light"/>
</g>
</g>
</svg>
