<svg width="500" height="500" viewBox="0 0 500 500" fill="none" xmlns="http://www.w3.org/2000/svg">
<path d="M179.067 237.666C180.164 253.942 194.392 266.617 210.844 265.977C227.296 265.335 241.427 257.315 238.649 235.345C237.552 219.068 227.457 206.254 206.873 207.034C190.42 207.676 177.97 221.39 179.067 237.666Z" fill="#FF575E"/>
<path d="M215.703 255C214.54 255 213.579 254.081 213.535 252.913C213.234 244.703 208.462 244.333 207.61 244.333H207.599C204.908 244.676 203.113 245.992 202.117 248.356C201.288 250.323 201.345 252.278 201.347 252.297C201.388 253.49 200.458 254.496 199.264 254.544C198.071 254.59 197.064 253.672 197.009 252.479C196.996 252.196 196.918 249.629 198.046 246.846C199.161 244.091 201.651 240.669 207.185 240.019L207.315 240.007C207.686 239.987 211.004 239.879 213.91 242.524C216.37 244.762 217.702 248.205 217.871 252.755C217.914 253.951 216.98 254.957 215.781 255C215.753 255 215.726 255 215.701 255H215.703Z" fill="black"/>
</svg>
