<svg width="500" height="500" viewBox="0 0 500 500" fill="none" xmlns="http://www.w3.org/2000/svg">
<path d="M322.933 237.666C321.836 253.942 307.608 266.617 291.156 265.977C274.704 265.335 260.573 257.315 263.351 235.345C264.448 219.068 274.543 206.254 295.127 207.034C311.58 207.676 324.03 221.39 322.933 237.666Z" fill="#FF575E"/>
<path d="M300.96 254.998C299.797 254.998 298.836 254.079 298.792 252.91C298.491 244.701 293.719 244.331 292.867 244.331H292.856C290.165 244.673 288.369 245.99 287.374 248.354C286.544 250.321 286.601 252.276 286.604 252.294C286.645 253.488 285.715 254.494 284.521 254.542C283.328 254.588 282.321 253.67 282.266 252.477C282.252 252.194 282.175 249.627 283.303 246.843C284.418 244.087 286.91 240.665 292.444 240.014L292.575 240.003C292.942 239.982 296.264 239.875 299.169 242.52C301.629 244.758 302.961 248.201 303.13 252.751C303.173 253.946 302.239 254.953 301.04 254.996C301.012 254.996 300.985 254.996 300.96 254.996V254.998Z" fill="black"/>
</svg>
