<svg width="500" height="500" viewBox="0 0 500 500" fill="none" xmlns="http://www.w3.org/2000/svg">
<path d="M116.731 228.689C98.756 238.556 78.3348 221.3 69.5979 214.462C68.6702 213.735 67.7425 213.008 66.8489 212.238C60.8838 207.084 58.7844 201.317 57.4669 197.589C56.9723 196.188 57.3552 194.625 58.4471 193.615C70.9564 182.022 84.838 178.593 91.6101 177.579C93.7983 177.253 95.795 178.891 95.8862 181.101C97.4955 220.138 117.199 218.684 117.199 218.684L116.729 228.689H116.731Z" fill="url(#paint0_linear_22583_17829)"/>
<path d="M124.609 245.781C118.778 253.118 95.1817 279.743 70.8993 264.007C70.3249 263.636 69.8667 263.107 69.5886 262.483C68.2073 259.402 64.5534 248.784 67.5508 227.55C67.9269 224.88 71.0338 223.601 73.1969 225.212C76.8462 227.933 82.2005 230.977 89.1892 232.349C100.433 234.555 109.715 231.212 114.614 228.806C116.382 227.938 118.52 228.664 119.382 230.437C121.263 234.299 123.141 238.159 125.021 242.021C125.619 243.25 125.461 244.712 124.611 245.781H124.609Z" fill="url(#paint1_linear_22583_17829)"/>
<path d="M317.297 69.6678C317.297 69.6678 336.629 52.7586 353.544 83.3553C370.46 113.952 388.984 163.47 380.528 211.379C380.528 211.379 389.791 243.183 375.696 274.183C375.696 274.183 389.388 268.145 386.972 282.236C386.95 282.283 381.712 293.712 369.856 295.319C369.856 295.319 378.916 300.553 374.689 305.787C374.689 305.787 369.856 316.456 345.692 313.84C345.622 313.905 315.713 341.92 250.846 340.714C250.69 340.72 187.976 343.393 153.887 313.84C153.783 313.859 134.831 317.431 124.588 305.687C124.588 305.687 121.267 300.553 129.119 295.42C129.079 295.409 118.54 292.688 114.62 285.456C114.62 285.456 105.257 268.649 123.984 274.183C123.937 274.116 113.122 258.377 117.944 209.768C117.944 209.768 115.124 150.988 130.428 119.183C130.428 119.183 138.481 93.4176 152.981 74.8973C167.477 56.3774 183.991 69.6627 191.239 75.701C198.488 81.7415 211.376 98.6511 219.432 114.754C219.474 114.765 223.947 115.87 241.984 97.4413C260.107 78.9236 274.606 82.1427 278.231 86.1688C281.408 89.6983 284.278 97.2566 281.404 104.765C280.736 106.507 279.722 108.093 278.459 109.47C277.527 110.486 276.168 111.906 274.518 113.453L274.523 113.457C276.002 112.917 278.341 112.688 281.858 114.355C281.858 114.355 293.133 83.3554 317.297 69.6678ZM207.897 237.419C202.267 237.419 197.704 241.981 197.703 247.608C197.703 253.236 202.267 257.799 207.897 257.799C213.526 257.799 218.09 253.236 218.09 247.608C218.09 241.981 213.526 237.419 207.897 237.419ZM291.764 237.279C286.134 237.279 281.571 241.841 281.571 247.469C281.571 253.096 286.134 257.659 291.764 257.659C297.394 257.659 301.957 253.096 301.957 247.469C301.957 241.841 297.393 237.279 291.764 237.279Z" fill="#A6ADAE"/>
<path d="M179.861 91.6058C179.861 91.6058 203.12 115.46 213.993 140.52C213.993 140.52 218.524 149.577 210.973 153.503C210.973 153.503 149.05 177.055 139.083 185.811C139.083 185.811 135.155 188.53 134.854 181.885C134.854 181.885 130.022 143.236 154.79 101.568C154.79 101.568 168.986 75.298 179.861 91.6035V91.6058Z" fill="#FFA295"/>
<path d="M320.07 91.6058C320.07 91.6058 296.811 115.46 285.938 140.52C285.938 140.52 281.407 149.577 288.958 153.503C288.958 153.503 350.881 177.055 360.848 185.811C360.848 185.811 364.776 188.53 365.077 181.885C365.077 181.885 369.909 143.236 345.141 101.568C345.141 101.568 330.945 75.298 320.07 91.6035V91.6058Z" fill="#FFA295"/>
<path d="M166.055 289.986C143.496 291.364 121.575 286.991 115.981 285.766C115.455 285.649 115.065 286.24 115.37 286.684C118.805 291.653 125.324 294.205 127.962 295.074C128.417 295.224 128.509 295.823 128.123 296.11C121.955 300.702 124.246 305.108 124.552 305.635C124.572 305.669 124.595 305.699 124.62 305.728C127.116 308.574 130.122 310.515 133.248 311.826C133.323 311.858 133.403 311.874 133.482 311.874C145.787 311.903 160.256 300.795 167.78 294.183C169.495 292.677 168.33 289.849 166.053 289.988L166.055 289.986Z" fill="#8A969B"/>
<path d="M249.782 312.885C271.62 312.885 289.323 300.809 289.323 285.911C289.323 271.014 271.62 258.938 249.782 258.938C227.944 258.938 210.241 271.014 210.241 285.911C210.241 300.809 227.944 312.885 249.782 312.885Z" fill="#D3D5D5"/>
<path d="M238.827 263.638L247.621 271.499C247.621 271.499 249.634 273.245 251.918 271.499L261.008 263.638L249.1 256.47L238.829 263.638H238.827Z" fill="#FFA295"/>
<path d="M332.577 289.45C330.184 289.275 329.01 292.303 330.899 293.779C337.76 299.145 350.147 307.485 365.455 311.871L365.603 311.91C366.116 312.044 366.659 312.013 367.147 311.807C372.348 309.618 374.219 306.646 374.605 305.94C374.669 305.824 374.741 305.717 374.819 305.612C376.902 302.843 375.334 300.091 373.426 298.129C372.22 296.89 372.665 294.805 374.281 294.187C378.91 292.414 382.191 289.179 384.253 286.52C384.253 286.52 365.528 291.877 332.575 289.448L332.577 289.45Z" fill="#8A969B"/>
<path d="M188.017 202.891C188.19 202.828 245.304 181.956 310.851 202.891C310.851 202.891 350.094 215.402 354.638 215.806C354.638 215.806 368.124 219.909 381.921 217.773C383.833 228.608 385.957 251.607 375.691 274.183C375.691 274.183 362.904 285.758 323.636 283.343C323.539 283.328 289.771 278.192 265.642 265.83C265.642 265.83 252.35 256.773 233.322 265.83C233.208 265.881 207.497 277.131 184.39 282.135C148.143 289.985 123.979 274.183 123.979 274.183C123.92 274.098 114.458 260.289 117.201 218.684C125.596 219.34 146.013 218.189 188.017 202.891ZM207.896 237.419C202.266 237.419 197.702 241.981 197.702 247.609C197.702 253.236 202.266 257.798 207.896 257.798C213.526 257.798 218.089 253.236 218.089 247.609C218.089 241.981 213.526 237.42 207.896 237.419ZM291.763 237.279C286.134 237.279 281.57 241.842 281.57 247.469C281.57 253.097 286.134 257.659 291.763 257.659C297.393 257.659 301.957 253.097 301.957 247.469C301.957 241.841 297.393 237.279 291.763 237.279Z" fill="#FF575E"/>
<path d="M225.801 275.972C232.272 277.72 250.316 281.363 273.73 275.797C274.965 275.503 276.119 276.526 275.982 277.788C275.198 285.125 271.15 305.37 250.398 303.983C250.311 303.976 250.222 303.978 250.136 303.983C248.305 304.126 226.952 305.209 223.49 277.973C223.325 276.676 224.536 275.63 225.799 275.97L225.801 275.972Z" fill="black"/>
<path d="M249.821 292.943C243.09 292.943 237.232 295.477 234.205 299.216C241.723 304.878 250.261 303.974 250.261 303.974C257.067 304.459 262.087 302.623 265.786 299.674C262.878 295.687 256.821 292.943 249.819 292.943H249.821Z" fill="#FFA295"/>
<path d="M193.75 227.817C193.159 227.817 192.571 227.591 192.127 227.138C191.247 226.242 191.252 224.809 192.143 223.925C192.53 223.542 201.81 214.558 218.066 217.123C219.311 217.319 220.159 218.486 219.963 219.73C219.767 220.974 218.6 221.822 217.355 221.626C211.534 220.708 206.07 221.352 201.117 223.547C197.397 225.194 195.366 227.149 195.348 227.17C194.903 227.603 194.327 227.819 193.752 227.819L193.75 227.817Z" fill="black"/>
<path d="M304.969 227.821C304.392 227.821 303.813 227.603 303.369 227.165C303.31 227.108 301.283 225.176 297.6 223.544C292.647 221.352 287.183 220.705 281.361 221.624C280.119 221.819 278.95 220.972 278.754 219.728C278.558 218.484 279.406 217.317 280.65 217.121C296.909 214.555 306.186 223.538 306.574 223.923C307.467 224.809 307.474 226.251 306.587 227.145C306.141 227.593 305.555 227.819 304.969 227.819V227.821Z" fill="black"/>
<path d="M270.648 147.729C274.888 146.146 280.31 143.026 282.364 137.132C283.529 133.794 283.087 131.062 282.954 130.419C282.068 124.249 276.235 121.959 271.008 121.161C275.667 118.217 279.278 115.03 279.501 114.829C279.859 114.512 280.082 114.102 280.171 113.667C277.573 112.776 275.747 113.006 274.516 113.455C274.657 113.323 274.792 113.193 274.929 113.063C272.253 115.216 266.88 119.22 261.902 121.018C260.885 121.385 260.302 122.451 260.541 123.506C260.78 124.561 261.767 125.27 262.841 125.165C262.989 125.149 277.744 123.902 278.717 131.08C278.726 131.148 278.735 131.196 278.749 131.262C278.822 131.599 280.397 139.572 269.029 143.76C268.92 143.801 268.831 143.84 268.729 143.899C268.715 143.906 267.233 144.701 264.432 145.127C261.831 145.524 257.525 145.679 251.795 144.157C250.651 143.854 249.477 144.535 249.174 145.676C248.87 146.82 249.552 147.994 250.694 148.297C254.548 149.32 257.881 149.68 260.666 149.68C266.41 149.68 269.823 148.146 270.643 147.729H270.648Z" fill="#8A969B"/>
<defs>
<linearGradient id="paint0_linear_22583_17829" x1="57.255" y1="204.6" x2="117.201" y2="204.6" gradientUnits="userSpaceOnUse">
<stop offset="0.15" stop-color="#FF575E"/>
<stop offset="0.47" stop-color="#FC545C"/>
<stop offset="0.71" stop-color="#F24B56"/>
<stop offset="0.92" stop-color="#E23D4C"/>
<stop offset="1" stop-color="#DB3648"/>
</linearGradient>
<linearGradient id="paint1_linear_22583_17829" x1="66.3997" y1="246.699" x2="125.377" y2="246.699" gradientUnits="userSpaceOnUse">
<stop offset="0.15" stop-color="#FF575E"/>
<stop offset="0.47" stop-color="#FC545C"/>
<stop offset="0.71" stop-color="#F24B56"/>
<stop offset="0.92" stop-color="#E23D4C"/>
<stop offset="1" stop-color="#DB3648"/>
</linearGradient>
</defs>
</svg>
