<svg width="500" height="500" viewBox="0 0 500 500" fill="none" xmlns="http://www.w3.org/2000/svg">
<path d="M250.993 434.65C247.232 434.745 243.469 434.932 239.711 435.036C234.398 435.182 229.083 435.308 223.77 435.484C218.462 435.66 213.162 435.929 207.859 436.226C206.812 436.285 205.762 436.332 204.713 436.373L201.453 457.73C201.453 457.73 199.03 468.489 205.392 470.282C205.392 470.282 222.668 474.255 250.997 473.987C250.99 473.878 250.99 453.996 250.993 434.65Z" fill="url(#paint0_linear_22588_19040)"/>
<path d="M250.997 450.011V398.394L231.063 377C231.063 377 214.569 396.553 209.027 408.126L202.633 450.011H251H250.997Z" fill="#35393B"/>
<path d="M250.997 445.711V445.776L203.677 443.163L202.374 451.7L250.997 454.343V454.302V445.711Z" fill="#FF575E"/>
<path d="M217.428 462.188C217.023 462.013 216.552 462.193 216.374 462.592C216.262 462.842 214.108 467.72 213.907 471.714C214.412 471.784 214.941 471.856 215.487 471.928C215.615 468.25 217.81 463.284 217.835 463.226C218.013 462.827 217.83 462.362 217.426 462.186L217.428 462.188Z" fill="#89959A"/>
<path d="M231.325 463.122C230.886 463.081 230.493 463.393 230.449 463.826C230.422 464.092 229.882 469.373 230.17 473.371C230.698 473.407 231.236 473.441 231.78 473.475C231.467 469.598 232.033 464.051 232.04 463.986C232.086 463.553 231.766 463.165 231.327 463.122H231.325Z" fill="#89959A"/>
<defs>
<linearGradient id="paint0_linear_22588_19040" x1="225.999" y1="474" x2="225.999" y2="337.302" gradientUnits="userSpaceOnUse">
<stop offset="0.62" stop-color="#A6ADAE"/>
<stop offset="0.79" stop-color="#A3ABAC"/>
<stop offset="0.88" stop-color="#9CA4A7"/>
<stop offset="0.94" stop-color="#8F9A9E"/>
<stop offset="0.96" stop-color="#8A969B"/>
</linearGradient>
</defs>
</svg>
