<svg width="500" height="500" viewBox="0 0 500 500" fill="none" xmlns="http://www.w3.org/2000/svg">
<path d="M250.007 434.652C253.767 434.746 257.53 434.934 261.289 435.037C266.602 435.184 271.917 435.31 277.23 435.486C282.538 435.662 287.837 435.93 293.141 436.228C294.188 436.287 295.238 436.334 296.287 436.375L299.547 457.73C299.547 457.73 301.97 468.489 295.608 470.282C295.608 470.282 278.332 474.256 250.002 473.987C250.009 473.879 250.009 453.996 250.007 434.649V434.652Z" fill="url(#paint0_linear_22588_19046)"/>
<path d="M250.002 450.013V398.394L269.937 377C269.937 377 286.88 399.896 291.973 408.127L298.368 450.013H250H250.002Z" fill="#35393B"/>
<path d="M250.002 445.713V445.778L297.323 443.165L298.626 451.703L250.002 454.346V454.305V445.713Z" fill="#FF575E"/>
<path d="M283.572 462.191C283.977 462.015 284.447 462.196 284.626 462.595C284.738 462.845 286.891 467.723 287.093 471.717C286.587 471.787 286.059 471.859 285.513 471.931C285.385 468.253 283.19 463.287 283.165 463.228C282.987 462.829 283.17 462.365 283.574 462.189L283.572 462.191Z" fill="#89959A"/>
<path d="M269.674 463.125C270.113 463.084 270.506 463.395 270.55 463.828C270.577 464.094 271.117 469.376 270.829 473.374C270.3 473.41 269.763 473.444 269.219 473.478C269.532 469.601 268.965 464.054 268.958 463.988C268.913 463.555 269.233 463.167 269.672 463.125H269.674Z" fill="#89959A"/>
<defs>
<linearGradient id="paint0_linear_22588_19046" x1="275.001" y1="474.003" x2="275.001" y2="337.301" gradientUnits="userSpaceOnUse">
<stop offset="0.62" stop-color="#A6ADAE"/>
<stop offset="0.79" stop-color="#A3ABAC"/>
<stop offset="0.88" stop-color="#9CA4A7"/>
<stop offset="0.94" stop-color="#8F9A9E"/>
<stop offset="0.96" stop-color="#8A969B"/>
</linearGradient>
</defs>
</svg>
