<svg width="500" height="500" viewBox="0 0 500 500" fill="none" xmlns="http://www.w3.org/2000/svg">
<path d="M251.306 412.631C250.993 412.631 250.677 412.631 250.358 412.626C244.287 412.572 239.122 412.004 239.07 412C238.632 411.952 238.315 411.558 238.366 411.118C238.413 410.68 238.81 410.364 239.245 410.414C239.296 410.418 244.385 410.977 250.371 411.031C254.499 411.07 258.071 410.863 260.989 410.418C261.424 410.35 261.832 410.651 261.898 411.086C261.964 411.521 261.666 411.929 261.23 411.995C258.456 412.417 255.121 412.631 251.308 412.631H251.306Z" fill="#89959A"/>
<path d="M251.133 473.991V412.638C251.133 412.191 250.777 411.831 250.335 411.831C249.893 411.831 249.537 412.194 249.537 412.638V474C250.064 474 250.597 473.995 251.13 473.993L251.133 473.991Z" fill="#89959A"/>
</svg>
