<svg width="500" height="500" viewBox="0 0 500 500" fill="none" xmlns="http://www.w3.org/2000/svg">
<path d="M211.375 397.903C208.396 397.628 196.664 397.981 187.774 418.616C187.742 418.691 187.715 418.768 187.694 418.846C187.384 419.946 184.403 429.04 170.405 429.607C170.405 429.607 158.231 429.92 152.02 426.834C150.887 426.272 149.549 427.058 149.508 428.322C149.382 432.221 150.392 439.216 158.039 444.448C158.09 444.482 158.137 444.518 158.185 444.559C159.295 445.521 174.736 458.333 197.022 447.581C197.102 447.542 197.179 447.499 197.252 447.449C198.804 446.391 215.916 434.47 217.509 421.619C217.514 421.578 217.52 421.539 217.529 421.498C217.703 420.671 219.645 411.376 219.911 407.605C219.943 407.143 219.786 406.687 219.478 406.339L212.51 398.48C212.218 398.152 211.815 397.944 211.375 397.903Z" fill="#A6ADAE"/>
<path d="M181.483 451.791C183.874 444.448 174.531 442.087 174.531 442.087C178.256 442.087 184.365 440.879 184.704 436.584C185.044 432.289 174.531 429.149 174.531 429.149C173.275 429.386 171.903 429.543 170.403 429.605C170.403 429.605 158.229 429.917 152.018 426.832C150.885 426.269 149.547 427.055 149.506 428.32C149.38 432.218 150.39 439.214 158.037 444.445C158.088 444.48 158.136 444.516 158.183 444.557C159.011 445.275 167.814 452.584 181.481 451.789L181.483 451.791Z" fill="#89959A"/>
<path d="M211.1 423.701C211.1 423.701 215.914 418.467 211.1 417.26C206.286 416.052 200.476 420.347 200.476 420.347C200.476 420.347 203.43 416.052 203.965 413.113C204.503 410.171 201.953 410.552 197.253 413.906C194.299 416.016 190.496 417.276 188.078 417.921C187.975 418.151 187.873 418.381 187.773 418.616C187.741 418.691 187.713 418.768 187.693 418.846C187.545 419.377 186.776 421.753 184.463 424.143C186.647 423.779 188.894 422.227 188.894 422.227C185.097 428.938 187.722 429.742 187.722 429.742C191.616 430.011 196.851 426.65 196.851 426.65C195.912 427.853 194.877 431.622 194.877 431.622C193.576 437.259 197.253 437.794 197.253 437.794C202.354 438.198 206.113 432.964 206.113 432.964C205.032 437.195 205.764 439.13 206.361 439.945C211.344 435.122 216.653 428.505 217.507 421.619C217.512 421.578 217.519 421.539 217.528 421.498C217.571 421.288 217.728 420.536 217.943 419.472C215.682 418.816 211.098 423.706 211.098 423.706L211.1 423.701Z" fill="#89959A"/>
</svg>
