<svg width="500" height="500" viewBox="0 0 500 500" fill="none" xmlns="http://www.w3.org/2000/svg">
<path d="M212.707 336.405C212.707 336.405 184.137 386.226 211.02 407.966C249.104 407.966 270.104 408.873 294.002 408.873C294.002 408.873 320.336 394.837 294.081 336.405H212.705H212.707Z" fill="url(#paint0_linear_22583_17832)"/>
<path d="M237 330C237 322.268 243.268 316 251 316V316C258.732 316 265 322.268 265 330V347H237V330Z" fill="#98A1A4"/>
<path d="M294.367 336.532L280.5 331L267.585 336.532L257.762 354.347L252.138 359.233L239.103 344.167L237.064 336.532L228.5 331L212.411 336.532C212.411 336.532 183.636 386.923 210.712 408.912C220.604 415.53 247.654 420.53 252.604 420.53C268.529 420.53 283.846 416.22 295.416 409.073C300.184 405.487 317.45 388.11 294.372 336.53L294.367 336.532Z" fill="#35393B"/>
<path d="M200.139 388.844C200.911 393.285 202.432 397.523 204.953 401.323H300.968C302.73 398.304 304.353 394.228 305.173 388.844H200.141H200.139Z" fill="#FF575E"/>
<path d="M253.912 353.416C253.9 353.421 253.887 353.423 253.875 353.428C253.039 353.699 252.125 353.446 251.516 352.81C248.824 349.999 243.495 341.923 241.66 339.105C241.257 338.485 240.582 338.095 239.841 338.059L236.93 337.911C235.148 337.82 233.933 339.699 234.76 341.281C239.094 349.579 248.011 359.418 251.329 362.948C252.113 363.779 253.383 363.907 254.327 363.264C261.917 358.09 267.971 345.562 270.522 339.629C271.176 338.107 270.057 336.411 268.397 336.411H265.359C264.509 336.411 263.729 336.876 263.326 337.624C261.258 341.458 254.917 353.084 253.91 353.421L253.912 353.416Z" fill="#FF575E"/>
<defs>
<linearGradient id="paint0_linear_22583_17832" x1="252.612" y1="474.53" x2="252.612" y2="336.405" gradientUnits="userSpaceOnUse">
<stop offset="0.62" stop-color="#A6ADAE"/>
<stop offset="0.79" stop-color="#A3ABAC"/>
<stop offset="0.88" stop-color="#9CA4A7"/>
<stop offset="0.94" stop-color="#8F9A9E"/>
<stop offset="0.96" stop-color="#8A969B"/>
</linearGradient>
</defs>
</svg>
